<?xml version="1.0" encoding="UTF-8"?>
<svg version="1.1" xmlns="http://www.w3.org/2000/svg" width="250" height="100">
<path d="M0 0 C82.5 0 165 0 250 0 C250 33 250 66 250 100 C167.5 100 85 100 0 100 C0 67 0 34 0 0 Z " fill="#013274" transform="translate(0,0)"/>
<path d="M0 0 C1.32 0 2.64 0 4 0 C4 4.29 4 8.58 4 13 C51.85 13 99.7 13 149 13 C149 8.71 149 4.42 149 0 C149.99 0 150.98 0 152 0 C152 5.61 152 11.22 152 17 C101.84 17 51.68 17 0 17 C0 11.39 0 5.78 0 0 Z " fill="#8F6F55" transform="translate(49,63)"/>
<path d="M0 0 C50.16 0 100.32 0 152 0 C152 5.61 152 11.22 152 17 C151.01 17 150.02 17 149 17 C149 12.71 149 8.42 149 4 C101.15 4 53.3 4 4 4 C4 8.29 4 12.58 4 17 C2.68 17 1.36 17 0 17 C0 11.39 0 5.78 0 0 Z " fill="#8F6F55" transform="translate(49,20)"/>
<path d="M0 0 C3 2.0625 3 2.0625 5 5 C5.65282268 9.06200778 5.40058999 11.19882003 3.5625 14.875 C0.41387305 17.4860565 -1.78478406 17.95903508 -5.80859375 18.2109375 C-9.14719082 17.88957522 -10.78607996 16.42147504 -13 14 C-14.58939347 10.82121306 -14.41576711 8.5043228 -14 5 C-9.70818642 -0.04288096 -6.51275922 -1.0337713 0 0 Z " fill="#F0F3F7" transform="translate(124,41)"/>
<path d="M0 0 C3 2.0625 3 2.0625 5 5 C5.65282268 9.06200778 5.40058999 11.19882003 3.5625 14.875 C0.41387305 17.4860565 -1.78478406 17.95903508 -5.80859375 18.2109375 C-9.14719082 17.88957522 -10.78607996 16.42147504 -13 14 C-14.58939347 10.82121306 -14.41576711 8.5043228 -14 5 C-9.70818642 -0.04288096 -6.51275922 -1.0337713 0 0 Z " fill="#F0F3F7" transform="translate(73,41)"/>
<path d="M0 0 C1.32 0 2.64 0 4 0 C4.33 3.3 4.66 6.6 5 10 C5.4125 9.175 5.825 8.35 6.25 7.5 C6.8275 6.675 7.405 5.85 8 5 C9.32 5 10.64 5 12 5 C13.75 7.5 13.75 7.5 15 10 C15.33 6.7 15.66 3.4 16 0 C17.32 0 18.64 0 20 0 C20 5.94 20 11.88 20 18 C18.35 18 16.7 18 15 18 C13.68 15.36 12.36 12.72 11 10 C10.34 10 9.68 10 9 10 C7.67372515 12.02099025 6.55938719 14.12191283 5.4140625 16.25 C4.94742188 16.8275 4.48078125 17.405 4 18 C2.68 18 1.36 18 0 18 C0 12.06 0 6.12 0 0 Z " fill="#D0D9E5" transform="translate(160,41)"/>
<path d="M0 0 C10.625 -0.25 10.625 -0.25 14 2 C14.42905061 5.94726562 14.08466413 8.61242079 12 12 C12.495 12.61875 12.99 13.2375 13.5 13.875 C15 16 15 16 15 18 C13.68 18 12.36 18 11 18 C9.64721885 16.01310269 8.31431695 14.01254782 7 12 C4.87880872 11.04768403 4.87880872 11.04768403 3 11 C3 13.31 3 15.62 3 18 C2.01 18 1.02 18 0 18 C0 12.06 0 6.12 0 0 Z " fill="#EFF2F6" transform="translate(198,41)"/>
<path d="M0 0 C5.58879398 1.1177588 6.08027185 1.73460129 9.3125 6.0625 C10.00988281 6.98160156 10.70726562 7.90070312 11.42578125 8.84765625 C11.94527344 9.55792969 12.46476563 10.26820312 13 11 C13.33 7.37 13.66 3.74 14 0 C15.32 0 16.64 0 18 0 C18 5.94 18 11.88 18 18 C12.41120602 16.8822412 11.91972815 16.26539871 8.6875 11.9375 C7.99011719 11.01839844 7.29273438 10.09929688 6.57421875 9.15234375 C6.05472656 8.44207031 5.53523437 7.73179688 5 7 C4.67 10.63 4.34 14.26 4 18 C2.68 18 1.36 18 0 18 C0 12.06 0 6.12 0 0 Z " fill="#D1DAE5" transform="translate(134,41)"/>
<path d="M0 0 C5 1 5 1 6.29296875 2.59375 C6.58816406 3.2228125 6.88335937 3.851875 7.1875 4.5 C8.58381846 8.03715643 8.58381846 8.03715643 11 9 C11.28875 8.2575 11.5775 7.515 11.875 6.75 C12.82302644 4.43260203 13.84845911 2.22082885 15 0 C16.32 0 17.64 0 19 0 C19 5.94 19 11.88 19 18 C18.01 18 17.02 18 16 18 C15.67 14.37 15.34 10.74 15 7 C14.01 8.98 13.02 10.96 12 13 C9.6875 12.875 9.6875 12.875 7 12 C5.1875 8.9375 5.1875 8.9375 4 6 C3.67 9.96 3.34 13.92 3 18 C2.01 18 1.02 18 0 18 C0 12.06 0 6.12 0 0 Z " fill="#E9EDF3" transform="translate(34,41)"/>
<path d="M0 0 C4.29 0 8.58 0 13 0 C13 0.99 13 1.98 13 3 C10.03 3 7.06 3 4 3 C4 4.32 4 5.64 4 7 C6.97 7 9.94 7 13 7 C13 7.99 13 8.98 13 10 C10.03 10 7.06 10 4 10 C4 11.65 4 13.3 4 15 C6.97 15 9.94 15 13 15 C13 15.99 13 16.98 13 18 C8.71 18 4.42 18 0 18 C0 12.06 0 6.12 0 0 Z " fill="#E0E6EE" transform="translate(218,41)"/>
<path d="M0 0 C3.96 0 7.92 0 12 0 C12 0.99 12 1.98 12 3 C9.03 3 6.06 3 3 3 C3 4.32 3 5.64 3 7 C5.97 7 8.94 7 12 7 C12 7.99 12 8.98 12 10 C9.03 10 6.06 10 3 10 C3 11.65 3 13.3 3 15 C5.97 15 8.94 15 12 15 C12 15.99 12 16.98 12 18 C8.04 18 4.08 18 0 18 C0 12.06 0 6.12 0 0 Z " fill="#F3F5F8" transform="translate(16,41)"/>
<path d="M0 0 C2.375 1.125 2.375 1.125 4 3 C4.45947423 6.1506804 4.52225401 8.07837528 2.9375 10.875 C-0.14071911 12.66235303 -2.52906068 12.43386742 -6 12 C-8.42061048 9.89172636 -8.9127007 8.59654522 -9.375 5.4375 C-9 3 -9 3 -7.875 1.1875 C-5.11646047 -0.55957504 -3.20161236 -0.39203417 0 0 Z " fill="#0C3B7A" transform="translate(122,44)"/>
<path d="M0 0 C2.375 1.125 2.375 1.125 4 3 C4.45947423 6.1506804 4.52225401 8.07837528 2.9375 10.875 C-0.14071911 12.66235303 -2.52906068 12.43386742 -6 12 C-8.42061048 9.89172636 -8.9127007 8.59654522 -9.375 5.4375 C-9 3 -9 3 -7.875 1.1875 C-5.11646047 -0.55957504 -3.20161236 -0.39203417 0 0 Z " fill="#0C3B7A" transform="translate(71,44)"/>
<path d="M0 0 C5.61 0 11.22 0 17 0 C17 0.99 17 1.98 17 3 C15.02 3 13.04 3 11 3 C11 7.95 11 12.9 11 18 C9.68 18 8.36 18 7 18 C7 13.05 7 8.1 7 3 C4.69 3 2.38 3 0 3 C0 2.01 0 1.02 0 0 Z " fill="#D3DCE7" transform="translate(80,41)"/>
<path d="M0 0 C0.99 0 1.98 0 3 0 C3 5.94 3 11.88 3 18 C2.01 18 1.02 18 0 18 C0 12.06 0 6.12 0 0 Z " fill="#FFFFFF" transform="translate(188,41)"/>
<path d="M0 0 C0.99 0 1.98 0 3 0 C3 5.94 3 11.88 3 18 C2.01 18 1.02 18 0 18 C0 12.06 0 6.12 0 0 Z " fill="#EFF2F6" transform="translate(101,41)"/>
<path d="M0 0 C0.33 0 0.66 0 1 0 C1.66 2.64 2.32 5.28 3 8 C5.31 8.66 7.62 9.32 10 10 C9.67 10.99 9.34 11.98 9 13 C4.87203885 12.7618484 2.65367367 12.60339108 -0.4375 9.75 C-2.12115876 6.78676059 -2.54164815 5.3401636 -2 2 C-1.34 1.34 -0.68 0.68 0 0 Z " fill="#F3F5F8" transform="translate(112,46)"/>
<path d="M0 0 C0.33 0 0.66 0 1 0 C1.66 2.64 2.32 5.28 3 8 C5.31 8.66 7.62 9.32 10 10 C9.67 10.99 9.34 11.98 9 13 C4.87203885 12.7618484 2.65367367 12.60339108 -0.4375 9.75 C-2.12115876 6.78676059 -2.54164815 5.3401636 -2 2 C-1.34 1.34 -0.68 0.68 0 0 Z " fill="#F3F5F8" transform="translate(61,46)"/>
<path d="M0 0 C2.31 0 4.62 0 7 0 C7.5625 1.9375 7.5625 1.9375 8 4 C7 5 7 5 3.4375 5.0625 C2.303125 5.041875 1.16875 5.02125 0 5 C0 3.35 0 1.7 0 0 Z " fill="#113F7D" transform="translate(201,44)"/>
<path d="M0 0 C-2.87087736 2.33923341 -5.5296668 3.7303659 -9 5 C-9.928125 5.37125 -10.85625 5.7425 -11.8125 6.125 C-12.534375 6.41375 -13.25625 6.7025 -14 7 C-11.07013018 -0.08051873 -7.02367934 -0.35118397 0 0 Z " fill="#E1E7EF" transform="translate(124,41)"/>
<path d="M0 0 C-2.87087736 2.33923341 -5.5296668 3.7303659 -9 5 C-9.928125 5.37125 -10.85625 5.7425 -11.8125 6.125 C-12.534375 6.41375 -13.25625 6.7025 -14 7 C-11.07013018 -0.08051873 -7.02367934 -0.35118397 0 0 Z " fill="#E1E7EF" transform="translate(73,41)"/>
<path d="M0 0 C1.32 0 2.64 0 4 0 C4.66 1.65 5.32 3.3 6 5 C3.36 5 0.72 5 -2 5 C-1.34 3.35 -0.68 1.7 0 0 Z " fill="#E0E6EE" transform="translate(168,46)"/>
</svg>
